<svg xmlns="http://www.w3.org/2000/svg" viewBox="0 0 23.4 19.8" enable-background="new 0 0 23.4 19.8"><style type="text/css">.st0{fill:#414042;} .st1{fill:#D15A28;}</style><path class="st1" d="M23.1 4.1c-.6-1.6-1.7-2.8-3.2-3.5-.9-.4-1.8-.6-2.7-.6-2.2 0-4.3 1.2-5.4 3v.1l.4.2-.6-.3c-1.1-1.8-3.1-3-5.3-3-1 0-1.9.2-2.7.6C.5 2.1-.9 5.8.6 8.9c1.1 2.3 6.5 7.4 9.7 10.3.4.4.9.6 1.4.6.5 0 1-.2 1.4-.5 3.2-2.9 8.6-8.1 9.7-10.3.8-1.6.8-3.3.3-4.9zm-1.2 4.4c-.7 1.5-4.3 5.3-9.5 10-.4.4-1.1.4-1.5 0-5.2-4.7-8.8-8.5-9.5-10-1.1-2.6 0-5.8 2.6-7 .7-.3 1.5-.5 2.3-.5 1.8 0 3.6 1 4.5 2.6.4.6 1.4.6 1.8 0C13.6 2 15.3 1 17.2 1c.8 0 1.5.2 2.2.5 1.3.6 2.2 1.7 2.7 3s.4 2.7-.2 4z"/></svg>