<?xml version="1.0" encoding="utf-8"?>
<!-- Generator: Adobe Illustrator 18.1.0, SVG Export Plug-In . SVG Version: 6.00 Build 0)  -->
<!DOCTYPE svg PUBLIC "-//W3C//DTD SVG 1.1//EN" "http://www.w3.org/Graphics/SVG/1.1/DTD/svg11.dtd">
<svg version="1.1" id="Layer_1" xmlns="http://www.w3.org/2000/svg" xmlns:xlink="http://www.w3.org/1999/xlink" x="0px" y="0px"
	 viewBox="0 0 23.4 19.8" style="enable-background:new 0 0 23.4 19.8;" xml:space="preserve">
<style type="text/css">
	.st0{fill:#414042;}
	.st1{fill:#D15A28;}
</style>
<g>
	<path class="st1" d="M23.1,4.1c-0.6-1.6-1.7-2.8-3.2-3.5C19,0.2,18.1,0,17.2,0c-2.2,0-4.3,1.2-5.4,3c0,0,0,0,0,0.1l0.4,0.2
		l-0.6-0.3c0,0,0,0,0,0c0,0,0,0,0,0C10.5,1.2,8.5,0,6.3,0C5.3,0,4.4,0.2,3.6,0.6c-3.1,1.5-4.5,5.2-3,8.3c1.1,2.3,6.5,7.4,9.7,10.3
		c0.4,0.4,0.9,0.6,1.4,0.6c0.5,0,1-0.2,1.4-0.5c3.2-2.9,8.6-8.1,9.7-10.3C23.6,7.4,23.6,5.7,23.1,4.1z M21.9,8.5
		c-0.7,1.5-4.3,5.3-9.5,10c-0.4,0.4-1.1,0.4-1.5,0c-5.2-4.7-8.8-8.5-9.5-10C0.3,5.9,1.4,2.7,4,1.5C4.7,1.2,5.5,1,6.3,1
		c1.8,0,3.6,1,4.5,2.6c0,0,0,0,0,0c0,0,0,0,0,0c0,0,0,0,0,0c0.4,0.6,1.4,0.6,1.8,0c0,0,0,0,0,0c0,0,0,0,0,0C13.6,2,15.3,1,17.2,1
		c0.8,0,1.5,0.2,2.2,0.5c1.3,0.6,2.2,1.7,2.7,3C22.6,5.8,22.5,7.2,21.9,8.5z"/>
</g>
</svg>
